<svg width="24" height="24" viewBox="0 0 24 24" fill="none" xmlns="http://www.w3.org/2000/svg">
<g clip-path="url(#clip0_1_43)">
<path fill-rule="evenodd" clip-rule="evenodd" d="M15.554 15.3825C14.563 16.1548 13.3177 16.6154 11.9669 16.6154C8.7435 16.6154 6.12073 13.9926 6.12073 10.7692V5.94919L7.96688 7.79534V10.7692C7.96688 12.9748 9.76134 14.7692 11.9669 14.7692C12.8081 14.7692 13.5895 14.5082 14.2344 14.0628L15.554 15.3825ZM17.7074 11.879C17.7767 11.5196 17.813 11.1486 17.813 10.7692V5.84615C17.813 2.62277 15.1903 0 11.9669 0C10.281 0 8.75941 0.717448 7.69143 1.86304L8.99738 3.16899C9.72999 2.35718 10.7899 1.84615 11.9669 1.84615C14.1724 1.84615 15.9669 3.64062 15.9669 5.84615V10.1385L17.7074 11.879ZM16.856 16.6844L18.1651 17.9935C16.6855 19.2651 14.8435 20.0583 12.89 20.2511V23.0769C12.89 23.5865 12.4764 24 11.9669 24C11.4573 24 11.0438 23.5865 11.0438 23.0769V20.2511C8.29919 19.9803 5.77611 18.5231 4.16627 16.2215C3.87457 15.8031 3.97673 15.2283 4.39396 14.9366C4.81242 14.6449 5.38719 14.7458 5.67888 15.1643C7.12257 17.2295 9.47334 18.4628 11.9656 18.4628C13.7655 18.4628 15.4922 17.8196 16.856 16.6844Z" fill="white"/>
<rect x="3" y="1.41418" width="2" height="24" rx="1" transform="rotate(-45 3 1.41418)" fill="white"/>
</g>
<defs>
<clipPath id="clip0_1_43">
<rect width="24" height="24" fill="white"/>
</clipPath>
</defs>
</svg>