<svg width="24" height="24" viewBox="0 0 24 24" fill="none" xmlns="http://www.w3.org/2000/svg">
<path d="M11.9669 16.6154C15.1903 16.6154 17.813 13.9926 17.813 10.7692V5.84615C17.813 2.62277 15.1903 0 11.9669 0C8.7435 0 6.12073 2.62277 6.12073 5.84615V10.7692C6.12073 13.9926 8.7435 16.6154 11.9669 16.6154ZM7.96688 5.84615C7.96688 3.64062 9.76134 1.84615 11.9669 1.84615C14.1724 1.84615 15.9669 3.64062 15.9669 5.84615V10.7692C15.9669 12.9748 14.1724 14.7692 11.9669 14.7692C9.76134 14.7692 7.96688 12.9748 7.96688 10.7692V5.84615ZM19.7675 16.2215C18.1589 18.5243 15.6346 19.9803 12.89 20.2511V23.0769C12.89 23.5865 12.4764 24 11.9669 24C11.4573 24 11.0438 23.5865 11.0438 23.0769V20.2511C8.29919 19.9803 5.77611 18.5231 4.16627 16.2215C3.87457 15.8031 3.97673 15.2283 4.39396 14.9366C4.81242 14.6449 5.38719 14.7458 5.67888 15.1643C7.12257 17.2295 9.47334 18.4628 11.9656 18.4628C14.458 18.4628 16.81 17.2295 18.2524 15.1643C18.5441 14.7446 19.1201 14.6437 19.5373 14.9366C19.9546 15.2283 20.0567 15.8031 19.765 16.2215H19.7675Z" fill="white"/>
</svg>